<?xml version="1.0" encoding="utf-8"?>
<!-- Svg Vector Icons : http://www.onlinewebfonts.com/icon -->
<!DOCTYPE svg PUBLIC "-//W3C//DTD SVG 1.1//EN" "http://www.w3.org/Graphics/SVG/1.1/DTD/svg11.dtd">
<svg version="1.1" xmlns="http://www.w3.org/2000/svg" xmlns:xlink="http://www.w3.org/1999/xlink" x="0px" y="0px" viewBox="0 0 1000 1000" enable-background="new 0 0 1000 1000" xml:space="preserve">
<metadata> Svg Vector Icons : http://www.onlinewebfonts.com/icon </metadata>
<g><path d="M783.7,755.3c0,12.9-10.3,25.8-25.8,25.8c-12.9,0-25.8-10.3-25.8-25.8v-2.6v-2.6c-15.5-113.5-113.5-196-229.5-196H500h-2.6c-116.1,0-211.5,82.5-229.5,193.4c0,2.6,0,5.2,0,7.7v2.6c0,15.5-12.9,25.8-25.8,25.8c-12.9,0-25.8-12.9-25.8-25.8l0,0l0,0v-2.6c0-2.6,0-5.2,0-5.2c12.9-103.2,82.5-188.3,177.9-224.4c-54.2-36.1-90.3-98-90.3-167.6c0-110.9,85.1-198.6,196-198.6c110.9,0,196,90.3,196,198.6c0,72.2-36.1,134.1-90.3,167.6c92.8,36.1,162.5,118.6,177.9,221.8C783.7,747.6,783.7,750.2,783.7,755.3L783.7,755.3z M649.6,355.6c0-82.5-67.1-149.6-149.6-149.6s-149.6,67.1-149.6,149.6c0,82.5,67.1,149.6,149.6,149.6S649.6,438.1,649.6,355.6z"/><path d="M500,990C229.2,990,10,770.8,10,500C10,229.2,229.2,10,500,10c270.8,0,490,219.2,490,490C990,770.8,770.8,990,500,990z M500,53.8C255,53.8,53.8,252.4,53.8,500c0,247.6,198.6,446.2,446.2,446.2c247.6,0,446.2-198.6,446.2-446.2C946.2,252.4,745,53.8,500,53.8z"/></g>
</svg>